<svg xmlns="http://www.w3.org/2000/svg" xmlns:xlink="http://www.w3.org/1999/xlink" width="900" zoomAndPan="magnify" viewBox="0 0 675 225" height="300" preserveAspectRatio="xMidYMid meet" version="1.0"><defs><g/><clipPath id="bdc974f663"><path d="M 0.164062 15.773438 L 384.585938 15.773438 L 384.585938 209.273438 L 0.164062 209.273438 Z M 0.164062 15.773438 " clip-rule="nonzero"/></clipPath></defs><rect x="-67.5" width="810" fill="#ffffff" y="-22.5" height="270" fill-opacity="1"/><rect x="-67.5" width="810" fill="#ffffff" y="-22.5" height="270" fill-opacity="1"/><rect x="-67.5" width="810" fill="#ffffff" y="-22.5" height="270" fill-opacity="1"/><g clip-path="url(#bdc974f663)"><path fill="#464f92" d="M 130.09375 177.863281 C 126.972656 177.863281 124.445312 180.390625 124.445312 183.515625 L 124.445312 195.214844 C 124.445312 198.335938 126.972656 200.867188 130.09375 200.867188 C 133.210938 200.867188 135.738281 198.335938 135.738281 195.214844 L 135.738281 183.515625 C 135.738281 180.390625 133.210938 177.863281 130.09375 177.863281 Z M 130.09375 147.125 C 126.972656 147.125 124.445312 149.65625 124.445312 152.777344 L 124.445312 164.476562 C 124.445312 167.597656 126.972656 170.128906 130.09375 170.128906 C 133.210938 170.128906 135.738281 167.597656 135.738281 164.476562 L 135.738281 152.777344 C 135.738281 149.65625 133.210938 147.125 130.09375 147.125 Z M 130.09375 116.390625 C 126.972656 116.390625 124.445312 118.921875 124.445312 122.042969 L 124.445312 133.742188 C 124.445312 136.863281 126.972656 139.394531 130.09375 139.394531 C 133.210938 139.394531 135.738281 136.863281 135.738281 133.742188 L 135.738281 122.042969 C 135.738281 118.921875 133.210938 116.390625 130.09375 116.390625 Z M 60.882812 104.804688 C 60.863281 119.746094 60.878906 134.6875 60.871094 149.632812 L 69.859375 149.632812 C 69.851562 134.6875 69.867188 119.746094 69.851562 104.804688 C 66.859375 104.777344 63.871094 104.78125 60.882812 104.804688 Z M 33.933594 104.804688 C 33.914062 118.503906 33.914062 132.210938 33.933594 145.910156 C 33.878906 147.679688 35.113281 149.097656 36.554688 149.632812 L 58.625 149.632812 C 58.621094 134.691406 58.636719 119.746094 58.621094 104.804688 C 50.390625 104.78125 42.160156 104.78125 33.933594 104.804688 Z M 72.113281 104.800781 C 72.089844 119.746094 72.109375 134.691406 72.097656 149.632812 L 94.164062 149.632812 C 95.605469 149.109375 96.847656 147.683594 96.792969 145.910156 C 96.808594 132.210938 96.816406 118.503906 96.792969 104.804688 C 88.5625 104.78125 80.339844 104.785156 72.113281 104.800781 Z M 346.179688 100.28125 L 350.535156 100.28125 C 353.425781 100.28125 354.867188 102.132812 354.867188 105.832031 C 354.867188 107.488281 354.496094 108.808594 353.753906 109.800781 C 353.011719 110.789062 351.894531 111.28125 350.410156 111.28125 L 346.179688 111.28125 Z M 202.25 99.800781 C 204.242188 99.800781 205.710938 100.609375 206.65625 102.234375 C 207.601562 103.855469 208.074219 106.332031 208.074219 109.660156 L 208.074219 116.070312 C 208.058594 119.214844 207.578125 121.535156 206.632812 123.027344 C 205.6875 124.523438 204.242188 125.273438 202.300781 125.273438 C 200.292969 125.273438 198.804688 124.507812 197.84375 122.976562 C 196.882812 121.449219 196.398438 119.070312 196.398438 115.84375 L 196.398438 109.28125 C 196.433594 106.085938 196.921875 103.707031 197.867188 102.144531 C 198.816406 100.582031 200.273438 99.800781 202.25 99.800781 Z M 338.734375 94.070312 L 338.734375 130.976562 L 346.179688 130.976562 L 346.179688 117.492188 L 349.878906 117.492188 L 355.425781 130.976562 L 363.429688 130.976562 L 363.429688 130.621094 L 356.96875 115.515625 C 360.53125 113.554688 362.3125 110.125 362.3125 105.222656 C 362.3125 101.660156 361.296875 98.910156 359.261719 96.972656 C 357.226562 95.039062 354.34375 94.070312 350.613281 94.070312 Z M 312.777344 94.070312 L 312.777344 130.976562 L 333.949219 130.976562 L 333.949219 124.792969 L 320.222656 124.792969 L 320.222656 115.007812 L 331.820312 115.007812 L 331.820312 109 L 320.222656 109 L 320.222656 100.28125 L 333.898438 100.28125 L 333.898438 94.070312 Z M 280.355469 94.070312 L 280.355469 130.976562 L 287.804688 130.976562 L 287.804688 115.183594 L 298.792969 115.183594 L 298.792969 130.976562 L 306.214844 130.976562 L 306.214844 94.070312 L 298.792969 94.070312 L 298.792969 109 L 287.804688 109 L 287.804688 94.070312 Z M 219.539062 94.070312 L 219.539062 119.441406 C 219.539062 123.347656 220.582031 126.328125 222.667969 128.390625 C 224.753906 130.449219 227.769531 131.480469 231.722656 131.480469 C 235.605469 131.480469 238.585938 130.464844 240.660156 128.425781 C 242.738281 126.390625 243.792969 123.457031 243.828125 119.621094 L 243.828125 94.070312 L 236.382812 94.070312 L 236.382812 119.59375 C 236.363281 121.621094 236.027344 123.078125 235.367188 123.96875 C 234.710938 124.855469 233.496094 125.296875 231.722656 125.296875 C 229.949219 125.296875 228.726562 124.851562 228.050781 123.953125 C 227.375 123.058594 227.035156 121.5625 227.035156 119.46875 L 227.035156 94.070312 Z M 156.898438 94.070312 L 167.460938 130.976562 L 175.210938 130.976562 L 185.847656 94.070312 L 177.539062 94.070312 L 171.335938 120.835938 L 165.15625 94.070312 Z M 262.433594 93.566406 C 258.347656 93.566406 255.15625 94.9375 252.863281 97.683594 C 250.566406 100.429688 249.417969 104.335938 249.417969 109.40625 L 249.417969 115.617188 C 249.417969 120.703125 250.527344 124.617188 252.746094 127.363281 C 254.96875 130.109375 258.164062 131.480469 262.332031 131.480469 C 266.300781 131.480469 269.375 130.398438 271.550781 128.238281 C 273.730469 126.074219 274.910156 122.890625 275.097656 118.683594 L 267.652344 118.683594 C 267.550781 121.183594 267.128906 122.910156 266.386719 123.867188 C 265.640625 124.820312 264.292969 125.296875 262.332031 125.296875 C 260.339844 125.296875 258.9375 124.613281 258.117188 123.246094 C 257.296875 121.875 256.886719 119.359375 256.886719 115.691406 L 256.886719 108.722656 C 256.9375 105.527344 257.378906 103.234375 258.207031 101.839844 C 259.03125 100.445312 260.441406 99.75 262.433594 99.75 C 264.394531 99.75 265.738281 100.242188 266.472656 101.230469 C 267.207031 102.21875 267.609375 104.015625 267.675781 106.617188 L 275.148438 106.617188 C 274.859375 102.410156 273.675781 99.183594 271.589844 96.9375 C 269.503906 94.6875 266.453125 93.566406 262.433594 93.566406 Z M 202.25 93.566406 C 198.078125 93.566406 194.820312 94.988281 192.472656 97.835938 C 190.125 100.683594 188.953125 104.640625 188.953125 109.710938 L 188.953125 116.023438 C 188.988281 120.902344 190.1875 124.703125 192.550781 127.414062 C 194.914062 130.125 198.164062 131.480469 202.300781 131.480469 C 206.453125 131.480469 209.699219 130.113281 212.039062 127.375 C 214.378906 124.640625 215.546875 120.792969 215.546875 115.84375 L 215.546875 109.53125 C 215.511719 104.480469 214.3125 100.554688 211.949219 97.761719 C 209.585938 94.964844 206.351562 93.566406 202.25 93.566406 Z M 130.09375 85.652344 C 126.972656 85.652344 124.445312 88.183594 124.445312 91.304688 L 124.445312 103.007812 C 124.445312 106.128906 126.972656 108.65625 130.09375 108.65625 C 133.210938 108.65625 135.738281 106.128906 135.738281 103.007812 L 135.738281 91.304688 C 135.738281 88.183594 133.210938 85.652344 130.09375 85.652344 Z M 49.515625 75.414062 C 47.507812 75.414062 45.601562 76.292969 44.179688 77.867188 C 42.761719 79.441406 41.972656 81.5625 41.972656 83.789062 C 41.972656 85.40625 42.277344 86.898438 43.078125 88.261719 L 43.421875 88.601562 L 32.359375 88.601562 C 30.585938 88.546875 29.164062 89.847656 28.632812 91.359375 L 28.632812 99.984375 C 29.152344 101.507812 30.585938 102.808594 32.363281 102.753906 C 41.109375 102.769531 49.863281 102.769531 58.613281 102.753906 C 58.625 98.035156 58.636719 93.320312 58.613281 88.601562 L 49.183594 88.601562 L 48.207031 87.167969 C 47.636719 86.796875 47 86.308594 46.632812 85.683594 C 46.300781 85.125 46.21875 84.445312 46.21875 83.789062 C 46.21875 82.8125 46.566406 81.890625 47.183594 81.199219 C 47.804688 80.511719 48.636719 80.128906 49.515625 80.128906 C 51.882812 80.128906 54.265625 81.695312 56.121094 83.203125 C 57.4375 84.277344 58.6875 85.484375 59.890625 86.71875 L 61.625 88.589844 L 60.871094 88.589844 L 60.871094 102.765625 L 69.859375 102.765625 L 69.859375 88.589844 L 68.832031 88.589844 L 70.566406 86.71875 C 71.769531 85.484375 73.015625 84.277344 74.335938 83.203125 C 76.1875 81.695312 78.570312 80.128906 80.941406 80.128906 C 81.816406 80.128906 82.652344 80.511719 83.273438 81.199219 C 83.894531 81.890625 84.238281 82.8125 84.238281 83.789062 C 84.238281 84.445312 84.15625 85.125 83.824219 85.683594 C 83.457031 86.308594 82.816406 86.796875 82.246094 87.167969 L 81.273438 88.601562 L 72.113281 88.597656 C 72.089844 93.316406 72.097656 98.035156 72.113281 102.75 C 80.609375 102.773438 89.105469 102.773438 97.601562 102.75 C 99.328125 102.808594 100.710938 101.507812 101.226562 99.996094 L 101.226562 91.371094 C 100.722656 89.851562 99.328125 88.546875 97.601562 88.601562 L 87.035156 88.601562 L 87.375 88.261719 C 88.175781 86.898438 88.488281 85.40625 88.488281 83.789062 C 88.488281 81.5625 87.691406 79.441406 86.273438 77.867188 C 84.855469 76.292969 82.945312 75.414062 80.941406 75.414062 C 77.578125 75.414062 74.476562 77.253906 71.832031 79.402344 C 69.488281 81.3125 67.316406 83.589844 65.226562 85.878906 C 63.140625 83.589844 60.96875 81.3125 58.625 79.402344 C 55.980469 77.253906 52.878906 75.414062 49.515625 75.414062 Z M 130.09375 54.917969 C 126.972656 54.917969 124.445312 57.449219 124.445312 60.570312 L 124.445312 72.269531 C 124.445312 75.390625 126.972656 77.921875 130.09375 77.921875 C 133.210938 77.921875 135.738281 75.390625 135.738281 72.269531 L 135.738281 60.570312 C 135.738281 57.449219 133.210938 54.917969 130.09375 54.917969 Z M 130.09375 24.179688 C 126.972656 24.179688 124.445312 26.710938 124.445312 29.832031 L 124.445312 41.535156 C 124.445312 44.65625 126.972656 47.183594 130.09375 47.183594 C 133.210938 47.183594 135.738281 44.65625 135.738281 41.535156 L 135.738281 29.832031 C 135.738281 26.710938 133.210938 24.179688 130.09375 24.179688 Z M 21.21875 15.773438 L 363.53125 15.773438 C 375.160156 15.773438 384.585938 25.207031 384.585938 36.847656 L 384.585938 188.199219 C 384.585938 199.839844 375.160156 209.273438 363.53125 209.273438 L 21.21875 209.273438 C 9.589844 209.273438 0.164062 199.839844 0.164062 188.199219 L 0.164062 36.847656 C 0.164062 25.207031 9.589844 15.773438 21.21875 15.773438 Z M 21.21875 15.773438 " fill-opacity="1" fill-rule="evenodd"/></g><g fill="#f62121" fill-opacity="1"><g transform="translate(388.770775, 138.359992)"><g><path d="M 38.8125 0.40625 L 38.8125 -37.78125 L 29.3125 0 L 23.203125 0 L 12.953125 -37.921875 L 12.953125 -0.40625 L 4.75 0 L 4.75 -50.40625 L 19.328125 -50.8125 L 27.75 -19.328125 L 35.828125 -49.65625 L 49.125 -50.46875 L 49.125 -0.40625 Z M 38.8125 0.40625 "/></g></g></g><g fill="#f62121" fill-opacity="1"><g transform="translate(442.623519, 138.359992)"><g><path d="M 12.34375 0.875 C 9.851562 0.875 7.816406 0.00390625 6.234375 -1.734375 C 4.648438 -3.472656 3.859375 -5.8125 3.859375 -8.75 L 3.859375 -37.375 L 13.359375 -38.203125 L 13.359375 -12.625 C 13.359375 -10.8125 13.648438 -9.507812 14.234375 -8.71875 C 14.828125 -7.925781 15.734375 -7.53125 16.953125 -7.53125 C 17.910156 -7.53125 18.929688 -7.765625 20.015625 -8.234375 C 21.097656 -8.710938 22.070312 -9.472656 22.9375 -10.515625 L 22.9375 -37.375 L 32.5 -38.203125 L 32.5 -0.40625 L 22.9375 0.40625 L 22.9375 -4.484375 C 21.351562 -2.671875 19.617188 -1.320312 17.734375 -0.4375 C 15.859375 0.4375 14.0625 0.875 12.34375 0.875 Z M 12.34375 0.875 "/></g></g></g><g fill="#f62121" fill-opacity="1"><g transform="translate(479.180991, 138.359992)"><g><path d="M 10.375 0.875 C 8.75 0.875 7.28125 0.367188 5.96875 -0.640625 C 4.65625 -1.660156 3.632812 -3.039062 2.90625 -4.78125 C 2.1875 -6.519531 1.828125 -8.476562 1.828125 -10.65625 C 1.828125 -15.582031 3.507812 -19.050781 6.875 -21.0625 C 10.25 -23.070312 14.175781 -24.210938 18.65625 -24.484375 C 18.65625 -26.929688 18.492188 -28.742188 18.171875 -29.921875 C 17.859375 -31.097656 17.09375 -31.6875 15.875 -31.6875 C 14.832031 -31.6875 14.039062 -31.273438 13.5 -30.453125 C 12.957031 -29.640625 12.617188 -28.601562 12.484375 -27.34375 L 3.1875 -28.96875 C 3.632812 -32.445312 5.054688 -34.929688 7.453125 -36.421875 C 9.859375 -37.921875 12.664062 -38.671875 15.875 -38.671875 C 19.988281 -38.671875 23.070312 -37.582031 25.125 -35.40625 C 27.1875 -33.238281 28.21875 -30.414062 28.21875 -26.9375 L 28.21875 -7.1875 C 28.21875 -5.0625 28.554688 -2.800781 29.234375 -0.40625 L 19.953125 0.40625 L 18.859375 -4.28125 C 18.046875 -2.832031 16.847656 -1.609375 15.265625 -0.609375 C 13.679688 0.378906 12.050781 0.875 10.375 0.875 Z M 14.796875 -5.90625 C 15.554688 -5.90625 16.195312 -6.082031 16.71875 -6.4375 C 17.238281 -6.800781 17.882812 -7.390625 18.65625 -8.203125 L 18.65625 -18.796875 C 16.394531 -18.796875 14.582031 -18.179688 13.21875 -16.953125 C 11.863281 -15.734375 11.1875 -13.835938 11.1875 -11.265625 C 11.1875 -9.546875 11.492188 -8.222656 12.109375 -7.296875 C 12.722656 -6.367188 13.617188 -5.90625 14.796875 -5.90625 Z M 14.796875 -5.90625 "/></g></g></g><g fill="#f62121" fill-opacity="1"><g transform="translate(511.126395, 138.359992)"><g/></g></g><g fill="#f62121" fill-opacity="1"><g transform="translate(527.675606, 138.359992)"><g><path d="M 4.75 0.40625 L 4.75 -50.0625 L 14.71875 -50.875 L 14.71875 -30.265625 L 24.21875 -30.265625 L 24.21875 -50.0625 L 34.1875 -50.875 L 34.1875 -0.40625 L 24.21875 0.40625 L 24.21875 -21.171875 L 14.71875 -21.171875 L 14.71875 -0.40625 Z M 4.75 0.40625 "/></g></g></g><g fill="#f62121" fill-opacity="1"><g transform="translate(566.606945, 138.359992)"><g><path d="M 10.375 0.875 C 8.75 0.875 7.28125 0.367188 5.96875 -0.640625 C 4.65625 -1.660156 3.632812 -3.039062 2.90625 -4.78125 C 2.1875 -6.519531 1.828125 -8.476562 1.828125 -10.65625 C 1.828125 -15.582031 3.507812 -19.050781 6.875 -21.0625 C 10.25 -23.070312 14.175781 -24.210938 18.65625 -24.484375 C 18.65625 -26.929688 18.492188 -28.742188 18.171875 -29.921875 C 17.859375 -31.097656 17.09375 -31.6875 15.875 -31.6875 C 14.832031 -31.6875 14.039062 -31.273438 13.5 -30.453125 C 12.957031 -29.640625 12.617188 -28.601562 12.484375 -27.34375 L 3.1875 -28.96875 C 3.632812 -32.445312 5.054688 -34.929688 7.453125 -36.421875 C 9.859375 -37.921875 12.664062 -38.671875 15.875 -38.671875 C 19.988281 -38.671875 23.070312 -37.582031 25.125 -35.40625 C 27.1875 -33.238281 28.21875 -30.414062 28.21875 -26.9375 L 28.21875 -7.1875 C 28.21875 -5.0625 28.554688 -2.800781 29.234375 -0.40625 L 19.953125 0.40625 L 18.859375 -4.28125 C 18.046875 -2.832031 16.847656 -1.609375 15.265625 -0.609375 C 13.679688 0.378906 12.050781 0.875 10.375 0.875 Z M 14.796875 -5.90625 C 15.554688 -5.90625 16.195312 -6.082031 16.71875 -6.4375 C 17.238281 -6.800781 17.882812 -7.390625 18.65625 -8.203125 L 18.65625 -18.796875 C 16.394531 -18.796875 14.582031 -18.179688 13.21875 -16.953125 C 11.863281 -15.734375 11.1875 -13.835938 11.1875 -11.265625 C 11.1875 -9.546875 11.492188 -8.222656 12.109375 -7.296875 C 12.722656 -6.367188 13.617188 -5.90625 14.796875 -5.90625 Z M 17.71875 -41.046875 L 5.4375 -51.359375 L 12.421875 -57.796875 L 21.234375 -44.4375 Z M 17.71875 -41.046875 "/></g></g></g><g fill="#f62121" fill-opacity="1"><g transform="translate(598.552349, 138.359992)"><g><path d="M 4.140625 -37.375 L 13.640625 -38.203125 L 13.640625 -33.3125 C 15.578125 -35.03125 17.484375 -36.351562 19.359375 -37.28125 C 21.242188 -38.207031 22.976562 -38.671875 24.5625 -38.671875 C 26.957031 -38.671875 28.910156 -37.800781 30.421875 -36.0625 C 31.941406 -34.320312 32.703125 -31.976562 32.703125 -29.03125 L 32.703125 -0.40625 L 23.203125 0.40625 L 23.203125 -25.4375 C 23.203125 -28.832031 22.050781 -30.53125 19.75 -30.53125 C 18.976562 -30.53125 18.128906 -30.300781 17.203125 -29.84375 C 16.273438 -29.394531 15.085938 -28.742188 13.640625 -27.890625 L 13.640625 -0.40625 L 4.140625 0.40625 Z M 4.140625 -37.375 "/></g></g></g><g fill="#f62121" fill-opacity="1"><g transform="translate(635.109821, 138.359992)"><g><path d="M 17.09375 11.875 C 12.03125 11.875 8.09375 11.160156 5.28125 9.734375 C 2.476562 8.304688 1.078125 6.347656 1.078125 3.859375 C 1.078125 2.140625 1.710938 0.679688 2.984375 -0.515625 C 4.253906 -1.710938 5.859375 -2.671875 7.796875 -3.390625 C 6.078125 -3.890625 4.785156 -4.519531 3.921875 -5.28125 C 3.066406 -6.050781 2.640625 -7.160156 2.640625 -8.609375 C 2.640625 -10.378906 3.25 -11.972656 4.46875 -13.390625 C 5.695312 -14.816406 7.304688 -16.003906 9.296875 -16.953125 C 5.222656 -19.304688 3.1875 -22.585938 3.1875 -26.796875 C 3.1875 -29.328125 3.875 -31.484375 5.25 -33.265625 C 6.632812 -35.054688 8.421875 -36.40625 10.609375 -37.3125 C 12.804688 -38.21875 15.101562 -38.671875 17.5 -38.671875 C 21.070312 -38.671875 24.238281 -37.722656 27 -35.828125 C 28.351562 -37.046875 29.71875 -38.0625 31.09375 -38.875 C 32.476562 -39.6875 34.210938 -40.09375 36.296875 -40.09375 L 36.296875 -33.78125 C 33.671875 -33.78125 31.660156 -33.46875 30.265625 -32.84375 C 30.804688 -31.4375 31.175781 -30.328125 31.375 -29.515625 C 31.582031 -28.703125 31.6875 -27.816406 31.6875 -26.859375 C 31.6875 -23.785156 30.644531 -21.109375 28.5625 -18.828125 C 26.476562 -16.546875 23.085938 -15.40625 18.390625 -15.40625 L 15.875 -15.46875 C 15.46875 -15.507812 14.972656 -15.53125 14.390625 -15.53125 C 13.796875 -15.351562 13.226562 -14.957031 12.6875 -14.34375 C 12.144531 -13.738281 11.875 -13.097656 11.875 -12.421875 C 11.875 -11.785156 12.097656 -11.238281 12.546875 -10.78125 C 13.003906 -10.332031 13.570312 -10.0625 14.25 -9.96875 L 25.109375 -8.75 C 31.390625 -8.03125 34.53125 -4.976562 34.53125 0.40625 C 34.53125 4.613281 32.910156 7.578125 29.671875 9.296875 C 26.441406 11.015625 22.25 11.875 17.09375 11.875 Z M 17.375 -20.828125 C 18.769531 -20.828125 19.851562 -21.359375 20.625 -22.421875 C 21.394531 -23.484375 21.78125 -24.988281 21.78125 -26.9375 C 21.78125 -28.925781 21.367188 -30.414062 20.546875 -31.40625 C 19.734375 -32.40625 18.695312 -32.90625 17.4375 -32.90625 C 16.03125 -32.90625 14.921875 -32.335938 14.109375 -31.203125 C 13.296875 -30.078125 12.890625 -28.675781 12.890625 -27 C 12.890625 -25.457031 13.226562 -24.039062 13.90625 -22.75 C 14.582031 -21.46875 15.738281 -20.828125 17.375 -20.828125 Z M 17.5 4.953125 C 22.65625 4.953125 25.234375 3.550781 25.234375 0.75 C 25.234375 -0.0195312 25.03125 -0.585938 24.625 -0.953125 C 24.21875 -1.316406 23.570312 -1.578125 22.6875 -1.734375 C 21.8125 -1.890625 20.378906 -2.035156 18.390625 -2.171875 L 12.75 -2.640625 C 11.9375 -2.367188 11.234375 -1.882812 10.640625 -1.1875 C 10.054688 -0.488281 9.765625 0.289062 9.765625 1.15625 C 9.765625 2.375 10.410156 3.3125 11.703125 3.96875 C 12.992188 4.625 14.925781 4.953125 17.5 4.953125 Z M 17.5 4.953125 "/></g></g></g></svg>